<mxfile host="app.diagrams.net" modified="2025-01-20T04:45:30.858Z" agent="Mozilla/5.0 (Macintosh; Intel Mac OS X 10_15_7) AppleWebKit/537.36 (KHTML, like Gecko) Chrome/131.0.0.0 Safari/537.36" version="24.6.1" etag="xbq7v-4x3msHSBBtsKxV" type="github">
  <diagram name="Page-1" id="RTWPQP_b1JQiogM-EV8X">
    <mxGraphModel>
      <root>
        <mxCell id="0" />
        <mxCell id="1" parent="0" />
      </root>
    </mxGraphModel>
  </diagram>
</mxfile>
